<?xml version="1.0" encoding="utf-8"?>
<!-- Generator: Adobe Illustrator 19.1.0, SVG Export Plug-In . SVG Version: 6.00 Build 0)  -->
<svg version="1.1" id="Layer_1" xmlns="http://www.w3.org/2000/svg" xmlns:xlink="http://www.w3.org/1999/xlink" x="0px" y="0px"
	 viewBox="0 0 120.6 256.1" style="enable-background:new 0 0 120.6 256.1;" xml:space="preserve">
<path d="M118,72.6L118,72.6C118,72.6,118,72.6,118,72.6c-0.3-0.2-0.5-0.4-0.8-0.6C108.4,65.3,25.8,3.4,14.7,0.2
	c-9.4-2.7-1.3,29,8,41.2l56.7,55.2l0.1,92.9L60.3,208L41,189.7l-0.2-83.6l-26.9-28c0,0-13.9-16.4-13.9,7.2v106.6
	c0,0-1.1,8.6,9.8,20.2l37.5,37.4c0,0,11.8,15,26.1,0c14.9-15.5,37.4-37.3,37.4-37.3s9.5-7.6,9.5-19.6c0-12.1,0.3-107.9,0.3-107.9
	S121.2,75.7,118,72.6z"/>
</svg>
